<mxfile host="65bd71144e">
    <diagram id="vP8cSJbvrpntYsUDsbow" name="Page-1">
        <mxGraphModel dx="1130" dy="768" grid="1" gridSize="10" guides="1" tooltips="1" connect="1" arrows="1" fold="1" page="1" pageScale="1" pageWidth="850" pageHeight="1100" math="0" shadow="0">
            <root>
                <mxCell id="0"/>
                <mxCell id="1" parent="0"/>
                <mxCell id="2" value="" style="whiteSpace=wrap;html=1;aspect=fixed;fillColor=#f5f5f5;fontColor=#333333;strokeColor=#666666;" parent="1" vertex="1">
                    <mxGeometry x="70" y="50" width="710" height="710" as="geometry"/>
                </mxCell>
                <mxCell id="23" value="" style="swimlane;startSize=0;fillColor=none;strokeWidth=4;strokeColor=#050505;" parent="1" vertex="1">
                    <mxGeometry x="240" y="690" width="410" height="90" as="geometry"/>
                </mxCell>
                <mxCell id="37" value="" style="group" parent="23" vertex="1" connectable="0">
                    <mxGeometry x="10" y="25" width="390" height="40" as="geometry"/>
                </mxCell>
                <mxCell id="27" value="D1" style="whiteSpace=wrap;html=1;aspect=fixed;strokeColor=#050505;strokeWidth=4;fontColor=#050505;fillColor=none;" parent="37" vertex="1">
                    <mxGeometry width="40" height="40" as="geometry"/>
                </mxCell>
                <mxCell id="29" value="D3" style="whiteSpace=wrap;html=1;aspect=fixed;strokeColor=#050505;strokeWidth=4;fontColor=#050505;fillColor=none;" parent="37" vertex="1">
                    <mxGeometry x="100" width="40" height="40" as="geometry"/>
                </mxCell>
                <mxCell id="31" value="D5" style="whiteSpace=wrap;html=1;aspect=fixed;strokeColor=#050505;strokeWidth=4;fontColor=#050505;fillColor=none;" parent="37" vertex="1">
                    <mxGeometry x="200" width="40" height="40" as="geometry"/>
                </mxCell>
                <mxCell id="28" value="D2" style="whiteSpace=wrap;html=1;aspect=fixed;strokeColor=#050505;strokeWidth=4;fontColor=#050505;fillColor=none;" parent="37" vertex="1">
                    <mxGeometry x="50" width="40" height="40" as="geometry"/>
                </mxCell>
                <mxCell id="30" value="D4" style="whiteSpace=wrap;html=1;aspect=fixed;strokeColor=#050505;strokeWidth=4;fontColor=#050505;fillColor=none;" parent="37" vertex="1">
                    <mxGeometry x="150" width="40" height="40" as="geometry"/>
                </mxCell>
                <mxCell id="34" value="D6" style="whiteSpace=wrap;html=1;aspect=fixed;strokeColor=#050505;strokeWidth=4;fontColor=#050505;fillColor=none;" parent="37" vertex="1">
                    <mxGeometry x="250" width="40" height="40" as="geometry"/>
                </mxCell>
                <mxCell id="35" value="D7" style="whiteSpace=wrap;html=1;aspect=fixed;strokeColor=#050505;strokeWidth=4;fontColor=#050505;fillColor=none;" parent="37" vertex="1">
                    <mxGeometry x="300" width="40" height="40" as="geometry"/>
                </mxCell>
                <mxCell id="36" value="D8" style="whiteSpace=wrap;html=1;aspect=fixed;strokeColor=#050505;strokeWidth=4;fontColor=#050505;fillColor=none;" parent="37" vertex="1">
                    <mxGeometry x="350" width="40" height="40" as="geometry"/>
                </mxCell>
                <mxCell id="38" value="&lt;font color=&quot;#050505&quot;&gt;&amp;nbsp;Pile P1&lt;/font&gt;" style="rounded=0;whiteSpace=wrap;html=1;strokeColor=#050505;strokeWidth=4;fillColor=none;align=center;" parent="1" vertex="1">
                    <mxGeometry x="670" y="660" width="70" height="90" as="geometry"/>
                </mxCell>
                <mxCell id="39" value="&lt;font color=&quot;#050505&quot;&gt;&amp;nbsp;Pile P2&lt;/font&gt;" style="rounded=0;whiteSpace=wrap;html=1;strokeColor=#050505;strokeWidth=4;fillColor=none;align=center;rotation=-90;" parent="1" vertex="1">
                    <mxGeometry x="680" y="60" width="70" height="90" as="geometry"/>
                </mxCell>
                <mxCell id="40" value="&lt;font color=&quot;#050505&quot;&gt;&amp;nbsp;Pile P3&lt;/font&gt;" style="rounded=0;whiteSpace=wrap;html=1;strokeColor=#050505;strokeWidth=4;fillColor=none;align=center;rotation=90;" parent="1" vertex="1">
                    <mxGeometry x="130" y="60" width="70" height="90" as="geometry"/>
                </mxCell>
                <mxCell id="41" value="&lt;font color=&quot;#050505&quot;&gt;&amp;nbsp;Pile P4&lt;/font&gt;" style="rounded=0;whiteSpace=wrap;html=1;strokeColor=#050505;strokeWidth=4;fillColor=none;align=center;rotation=90;" parent="1" vertex="1">
                    <mxGeometry x="130" y="520" width="70" height="90" as="geometry"/>
                </mxCell>
                <mxCell id="43" value="" style="group" parent="1" vertex="1" connectable="0">
                    <mxGeometry x="230" y="310" width="440" height="90" as="geometry"/>
                </mxCell>
                <mxCell id="24" value="" style="group" parent="43" vertex="1" connectable="0">
                    <mxGeometry x="100" width="340" height="90" as="geometry"/>
                </mxCell>
                <mxCell id="8" value="" style="group" parent="24" vertex="1" connectable="0">
                    <mxGeometry x="70" width="60" height="90" as="geometry"/>
                </mxCell>
                <mxCell id="4" value="" style="rounded=0;whiteSpace=wrap;html=1;fillColor=#999999;" parent="8" vertex="1">
                    <mxGeometry width="60" height="90" as="geometry"/>
                </mxCell>
                <mxCell id="7" value="" style="endArrow=none;html=1;entryX=1;entryY=0.5;entryDx=0;entryDy=0;exitX=0;exitY=0.5;exitDx=0;exitDy=0;strokeWidth=4;" parent="8" source="4" target="4" edge="1">
                    <mxGeometry width="50" height="50" relative="1" as="geometry">
                        <mxPoint x="80" y="200" as="sourcePoint"/>
                        <mxPoint x="130" y="150" as="targetPoint"/>
                    </mxGeometry>
                </mxCell>
                <mxCell id="9" value="" style="group" parent="24" vertex="1" connectable="0">
                    <mxGeometry x="140" width="60" height="90" as="geometry"/>
                </mxCell>
                <mxCell id="10" value="" style="rounded=0;whiteSpace=wrap;html=1;fillColor=#999999;" parent="9" vertex="1">
                    <mxGeometry width="60" height="90" as="geometry"/>
                </mxCell>
                <mxCell id="11" value="" style="endArrow=none;html=1;entryX=1;entryY=0.5;entryDx=0;entryDy=0;exitX=0;exitY=0.5;exitDx=0;exitDy=0;strokeWidth=4;" parent="9" source="10" target="10" edge="1">
                    <mxGeometry width="50" height="50" relative="1" as="geometry">
                        <mxPoint x="80" y="200" as="sourcePoint"/>
                        <mxPoint x="130" y="150" as="targetPoint"/>
                    </mxGeometry>
                </mxCell>
                <mxCell id="12" value="" style="group;fontStyle=1" parent="24" vertex="1" connectable="0">
                    <mxGeometry x="210" width="60" height="90" as="geometry"/>
                </mxCell>
                <mxCell id="13" value="" style="rounded=0;whiteSpace=wrap;html=1;fillColor=#999999;" parent="12" vertex="1">
                    <mxGeometry width="60" height="90" as="geometry"/>
                </mxCell>
                <mxCell id="14" value="" style="endArrow=none;html=1;entryX=1;entryY=0.5;entryDx=0;entryDy=0;exitX=0;exitY=0.5;exitDx=0;exitDy=0;strokeWidth=4;" parent="12" source="13" target="13" edge="1">
                    <mxGeometry width="50" height="50" relative="1" as="geometry">
                        <mxPoint x="80" y="200" as="sourcePoint"/>
                        <mxPoint x="130" y="150" as="targetPoint"/>
                    </mxGeometry>
                </mxCell>
                <mxCell id="15" value="" style="group" parent="24" vertex="1" connectable="0">
                    <mxGeometry width="60" height="90" as="geometry"/>
                </mxCell>
                <mxCell id="16" value="" style="rounded=0;whiteSpace=wrap;html=1;fillColor=#999999;" parent="15" vertex="1">
                    <mxGeometry width="60" height="90" as="geometry"/>
                </mxCell>
                <mxCell id="17" value="" style="endArrow=none;html=1;entryX=1;entryY=0.5;entryDx=0;entryDy=0;exitX=0;exitY=0.5;exitDx=0;exitDy=0;strokeWidth=4;" parent="15" source="16" target="16" edge="1">
                    <mxGeometry width="50" height="50" relative="1" as="geometry">
                        <mxPoint x="80" y="200" as="sourcePoint"/>
                        <mxPoint x="130" y="150" as="targetPoint"/>
                    </mxGeometry>
                </mxCell>
                <mxCell id="18" value="" style="group" parent="24" vertex="1" connectable="0">
                    <mxGeometry x="280" width="60" height="90" as="geometry"/>
                </mxCell>
                <mxCell id="19" value="" style="rounded=0;whiteSpace=wrap;html=1;fillColor=#999999;" parent="18" vertex="1">
                    <mxGeometry width="60" height="90" as="geometry"/>
                </mxCell>
                <mxCell id="20" value="" style="endArrow=none;html=1;entryX=1;entryY=0.5;entryDx=0;entryDy=0;exitX=0;exitY=0.5;exitDx=0;exitDy=0;strokeWidth=4;" parent="18" source="19" target="19" edge="1">
                    <mxGeometry width="50" height="50" relative="1" as="geometry">
                        <mxPoint x="80" y="200" as="sourcePoint"/>
                        <mxPoint x="130" y="150" as="targetPoint"/>
                    </mxGeometry>
                </mxCell>
                <mxCell id="25" value="D&lt;font color=&quot;#050505&quot;&gt;DÃ©fausse&amp;nbsp;&lt;/font&gt;" style="rounded=0;whiteSpace=wrap;html=1;strokeColor=#050505;strokeWidth=4;fillColor=none;align=left;" parent="43" vertex="1">
                    <mxGeometry width="70" height="90" as="geometry"/>
                </mxCell>
                <mxCell id="44" value="Score : ...&amp;nbsp; Nombre de parties : ..." style="text;html=1;strokeColor=none;fillColor=none;align=center;verticalAlign=middle;whiteSpace=wrap;rounded=0;strokeWidth=4;fontColor=#050505;" parent="1" vertex="1">
                    <mxGeometry x="310" y="60" width="240" height="30" as="geometry"/>
                </mxCell>
            </root>
        </mxGraphModel>
    </diagram>
</mxfile>